{"title":"Killer Virgin Road 2009 dvdrip(Eng Sub) GoGo","uid":5625304,"size":734457203,"categoryP":"video","categoryS":"movies","magnet":"?xt=urn:btih:8686d789eec71ddc1ee97c6de667bdc80a024024&amp;dn=Killer+Virgin+Road+2009+dvdrip%28Eng+Sub%29+GoGo&amp;tr=udp%3A%2F%2Ftracker.openbittorrent.com%3A80&amp;tr=udp%3A%2F%2Fopen.demonii.com%3A1337&amp;tr=udp%3A%2F%2Ftracker.coppersurfer.tk%3A6969&amp;tr=udp%3A%2F%2Fexodus.desync.com%3A6969","seeders":0,"leechers":1,"uploader":"fasamoo","files":8,"time":1276459497,"description":"\n\n[img]http://i383.photobucket.com/albums/oo274/flamethunder85/kvr/img_main.jpg[/img]\n\n\nHiroko is soon to marry when disaster strikes. On the road to Mount Fuji a woman falls on the hood of her car. The woman is Kobayashi Fukuko, and she attempts suicide again and again. The two women become friends, but Hiroko will meet disaster once again.\n\n\n\n\n\n\n\nGeneral\nComplete name                    : Killer Virgin Road 2009 dvdrip(Eng Sub) GoGoKiller Virgin Road 2009 dvdrip(Eng Sub) GoGo.avi\nIMDB Link                        : [url]http://www.imdb.com/title/tt1504416/[/url]\nFormat                           : AVI\nFormat/Info                      : Audio Video Interleave\nFile size                        : 700 MiB\nDuration                         : 1h 37mn\nOverall bit rate                 : 1 009 Kbps\nWriting application              : VirtualDubMod 1.5.4.1 (build 2178/release)\nWriting library                  : VirtualDubMod build 2178/release\n\nVideo\nID                               : 0\nFormat                           : MPEG-4 Visual\nFormat profile                   : Advanced Simple@L5\nFormat settings, BVOP            : Yes\nFormat settings, QPel            : No\nFormat settings, GMC             : No warppoints\nFormat settings, Matrix          : Custom\nCodec ID                         : XVID\nCodec ID/Hint                    : XviD\nDuration                         : 1h 37mn\nBit rate                         : 883 Kbps\nWidth                            : 624 pixels\nHeight                           : 320 pixels\nDisplay aspect ratio             : 1.950\nFrame rate                       : 23.976 fps\nColor space                      : YUV\nChroma subsampling               : 4:2:0\nBit depth                        : 8 bits\nScan type                        : Progressive\nBits/(Pixel*Frame)               : 0.184\nStream size                      : 613 MiB (88%)\nWriting library                  : XviD 1.2.1 (UTC 2008-12-04)\n\nAudio\nID                               : 1\nFormat                           : MPEG Audio\nFormat version                   : Version 1\nFormat profile                   : Layer 3\nMode                             : Joint stereo\nMode extension                   : MS Stereo\nCodec ID                         : 55\nCodec ID/Hint                    : MP3\nDuration                         : 1h 37mn\nBit rate mode                    : Variable\nBit rate                         : 113 Kbps\nNominal bit rate                 : 128 Kbps\nChannel(s)                       : 2 channels\nSampling rate                    : 48.0 KHz\nStream size                      : 78.6 MiB (11%)\nAlignment                        : Aligned on interleaves\nInterleave, duration             : 24 ms (0.58 video frame)\nInterleave, preload duration     : 162 ms\nWriting library                  : LAME3.98r\nEncoding settings                : -m j -V 4 -q 2 -lowpass 17 --abr 128\nLanguage                         : Japanese\nSubtitles                        : English.(.srt)\nGenre                            : Comedy:Drama\n \n\n[img]http://imgboot.com/images/fasamoo/pleaseseed.gif[/img] \n\n","torrent":{"xt":"urn:btih:8686d789eec71ddc1ee97c6de667bdc80a024024","amp;dn":"Killer+Virgin+Road+2009+dvdrip%28Eng+Sub%29+GoGo","amp;tr":["udp%3A%2F%2Ftracker.openbittorrent.com%3A80","udp%3A%2F%2Fopen.demonii.com%3A1337","udp%3A%2F%2Ftracker.coppersurfer.tk%3A6969","udp%3A%2F%2Fexodus.desync.com%3A6969"],"infoHash":"8686d789eec71ddc1ee97c6de667bdc80a024024","infoHashBuffer":{"type":"Buffer","data":[134,134,215,137,238,199,29,220,30,233,124,109,230,103,189,200,10,2,64,36]},"announce":[],"urlList":[]}}